<svg width="32" height="34" viewBox="0 0 32 34" fill="none" xmlns="http://www.w3.org/2000/svg">
<path d="M2.47412 32.3244H7.59302L13.7676 23.8131L16.2363 20.4646L12.8659 18.1993L2.47412 32.3244ZM25.3855 1.18762L15.5765 14.5155L18.771 16.7972L23.8185 10.1828L21.7676 18.9911L21.7621 19.035L22.3064 19.3155L22.3174 19.321L24.7971 20.5966L30.8672 1.18762H25.3855ZM20.6514 21.9491L18.7215 27.6454H23.0707L24.1538 23.3952L20.6514 21.9491Z" fill="#0E0D05"/>
<path fill-rule="evenodd" clip-rule="evenodd" d="M8.6156 15.7251C9.43484 15.8461 10.2321 15.967 11.0348 16.0825C11.8321 16.198 12.6293 16.3134 13.4266 16.4124C13.5421 16.4234 13.6905 16.3794 13.795 16.3189C14.1304 16.1155 14.4548 15.8901 14.7902 15.6866C14.8507 15.6536 14.9661 15.6481 15.0211 15.6811C16.9565 16.9402 18.8864 18.2103 20.8218 19.4694C22.0589 20.2722 23.307 21.0584 24.5441 21.8722C24.841 22.0701 25.0994 22.3395 25.4129 22.6035C25.028 22.6035 24.6816 22.6364 24.3407 22.4825C23.252 21.9767 22.1524 21.4873 21.0582 20.9925C19.9915 20.5086 18.9194 20.0358 17.8527 19.5464C16.8905 19.1066 15.9283 18.6667 14.9716 18.2103C14.1689 17.8255 13.3386 17.5725 12.4479 17.4846C11.5187 17.3856 10.595 17.2261 9.67127 17.0942C9.14893 17.0227 8.6266 16.9512 8.10426 16.8962C7.99979 16.8852 7.86783 16.9347 7.77986 17.0007C7.03759 17.534 6.22385 17.6165 5.38261 17.3306C5.05271 17.2151 4.72282 17.0502 4.4424 16.8413C4.01904 16.5169 3.57917 16.4564 3.09533 16.6048C2.69395 16.7313 2.29807 16.8743 1.8967 17.0172C1.66577 17.0997 1.59979 17.0667 1.5723 16.8193C1.53931 16.5279 1.63278 16.3904 1.8857 16.2584C2.25959 16.066 2.63897 15.8846 2.97436 15.6426C3.22728 15.4557 3.37574 15.1698 3.37574 14.8234C3.35924 13.6852 4.23897 12.8605 5.32763 12.7066C6.26783 12.5801 7.12007 12.8385 7.80735 13.4873C8.43416 14.0811 8.73106 14.8179 8.6156 15.7251ZM6.24034 16.7973C6.44378 16.7533 6.65271 16.7148 6.85615 16.6708C7.61491 16.4894 8.10426 15.6481 7.86783 14.9114C7.52144 13.8227 6.44928 13.2289 5.37161 13.4268C4.19498 13.6468 3.77161 14.6749 4.30495 15.6371C4.71732 16.3739 5.38811 16.7313 6.24034 16.7973ZM14.9386 17.2976C15.1531 17.2976 15.3345 17.1382 15.3345 16.9567C15.3345 16.7533 15.1476 16.5554 14.9551 16.5554C14.7737 16.5608 14.5647 16.7808 14.5922 16.9732C14.6197 17.1602 14.7242 17.2976 14.9386 17.2976Z" fill="#0E0D05"/>
<path fill-rule="evenodd" clip-rule="evenodd" d="M14.3837 15.1973C14.0538 15.4447 13.7569 15.6537 13.4765 15.8791C13.3665 15.9726 13.306 15.9561 13.2291 15.8571C12.3493 14.7245 11.4696 13.5863 10.5789 12.4372C10.3919 12.5196 10.205 12.6186 10.0126 12.6901C9.40226 12.9265 8.78645 12.899 8.16514 12.6956C8.09366 12.6736 7.9837 12.6791 7.92872 12.7231C7.69229 12.8935 7.41738 12.932 7.20844 12.8056C6.97751 12.6681 6.87305 12.4427 6.94452 12.1458C6.97751 11.9918 6.93903 11.9148 6.84006 11.7994C6.32872 11.1891 6.0703 10.4798 6.25174 9.68803C6.48267 8.69284 7.24693 8.12102 8.26961 8.01106C9.71016 7.8626 11.1782 8.91278 11.3981 10.3588C11.4586 10.7547 11.4146 11.1341 11.2882 11.5135C11.2552 11.6014 11.2772 11.7499 11.3377 11.8214C12.1184 12.7011 12.9047 13.5753 13.6909 14.4495C13.9163 14.697 14.1473 14.9444 14.3837 15.1973ZM9.00088 12.1458C9.16583 12.1348 9.29779 12.1403 9.41875 12.1183C10.1665 11.9808 10.7878 11.453 10.7053 10.5678C10.5954 9.44061 9.36927 8.56638 8.22013 8.74233C7.12597 8.91827 6.62013 9.98494 7.10947 10.9141C7.52184 11.6894 8.19263 12.0523 9.00088 12.1458Z" fill="#0E0D05"/>
</svg>
